<?xml version="1.0" encoding="UTF-8"?>
<svg id="a" data-name="Layer 1" xmlns="http://www.w3.org/2000/svg" viewBox="0 0 512 512">
  <defs>
    <style>
      .b {
        fill: #033349;
      }

      .c {
        fill: #2c742e;
      }
    </style>
  </defs>
  <g>
    <g>
      <path class="c" d="M347.51,176.64c2.61-.65,5.03-8.76,3.76-11.67-.12-.27-1-2.38-1.38-3-4.61-7.5-11.45-12.42-17.51-18.24-1.54-1.48-4.32-1.83-4.47-4.46-.36-6.26,11.43-12.11,11.92-14.27,1.02-4.56-1.12-10.6.29-16.54,3.44-14.49,22.5-23.35,36.02-16.53,1.28.65,8.07,4.88,9.25,5.75,3.63,2.65,7.84,12.18,8.35,16.64.32,2.77-.68,9.5-.33,10.44.64,1.75,4.55,3.54,5.88,5.02,7.45,8.26,12.88,18.58,11.57,30.44-.31,2.77-3.08,8.48-2.8,9.86.2.96,5.14,8.32,6.01,10.92,2.63,7.88,1.16,16.92-3.78,23.65-3.76,5.12-10.05,7.43-14.16,12.1-7.8,3.58-15.9,3.09-24.28,2.97.06-5.09-.97-17.4.2-21.3.84-2.81,12.12-13.89,14.77-17.23,2.18-2.74,7.87-9.01,3.04-12-5.51-3.41-12.71,12.54-18.02,13.53v-32.5c0-2.34-4.48-6.12-7.6-3.59-1.35,1.1-2.29,12.62-2.45,15.55-1,18.8-.49,38.84-.96,57.54-12.66.92-22.23.1-32.84-7.16l-.17-34.85c2.3-.45,14.78.34,15.79-.18"/>
      <path class="b" d="M392.36,250.72c1.84,0,2.9,6.04-2.03,6.97q-30.91-.01-46.03.09c-3.21.02-5.78-1.91-5.37-5.48.3-1.49.92-1.54,2.46-1.58h19.48c.19-10.31-.26-20.69,0-31,.47-18.7-.04-38.74.96-57.54.16-2.93,1.09-14.45,2.45-15.55,3.11-2.52,7.6,1.25,7.6,3.59v32.5c5.31-.99,12.51-16.95,18.02-13.53,4.82,2.99-.87,9.26-3.04,12-2.65,3.34-13.92,14.42-14.77,17.23-1.17,3.9-.16,16.21-.2,21.3-.25,30.82.13,0-.25,30.97"/>
    </g>
    <path class="b" d="M303.54,133.18c.14.23,3.2,3.77,3.48,4.03,7.71,7.16,19.74,14.34,28.03,20.94,1.43,1.14,4.5,4.17,4.06,6.12-.29,1.26-3.09,3.91-4.06,3.91h-17c-.11,0-1.5,1.39-1.5,1.5v83c0,.61-.46,3.49-5.45,3.55-25.98.13-28.52.12-56.1,0-4.32-.02-5.66-3.72-6.36-7.64l-4.09-58.91c-.23-2.22,0-2.5-.56-2.5h-19.44l-3.99,56.5c-1.2,6.26.56,11.57-7.49,12.52l-56.81-.23c-2.1-1.01-3.77-2.8-3.76-5.24l-.16-79.84c-2.08-7.25-17.13-1.56-20.85-4.15-1.59-1.11-1.26-4.72-.04-6.18l100.86-78.18c3.37-2.34,6.23,1.28,8.7,2.86,8.83,5.63,16.23,14.04,24,19.97,2.45,1.87,5.41,4.2,9.04,5.96,1.92-3.74.6-12.68,2.43-16.56,4.48.49,22.93-.3,25.6.54.71.22.26,1.51.46,2.02-.22,11.1-.38,23.34-.06,33.61.05,1.68.49,1.47,1.06,2.39ZM271.15,140.58c-13.41-8.16-43.14-12.32-56.92-4.17-3.02,1.79-3.68,5.16-9.31,5.72s-14.37-6.74-19.94-1.02c-3.36,3.45-4.57,22.46,1.58,25.61,5.22-.06,8.28.56,9.33-1.7,1.82-3.95,4.32-5.26,9.42-6.67,7.58-2.09,16.77,8.56,18.16,15.41.35,1.74,1.24,3.63,1.33,5.39l19.19.12c1.31-.92-.17-15.59,8.64-20.51,9.73-5.43,20.53,2.17,28.66,7.07,1.31.79,3.11,2.97,4.18,3.44,4.44,1.96,4.15,3.06,4.28-2.27.02-.93-1.69-4.79-2.17-5.57-4.45-7.28-8.97-16.31-16.43-20.85Z"/>
  </g>
  <g>
    <path class="c" d="M259.57,417l-10.81-37.1h8.69l10.23,37.1h-8.11ZM260.73,417l9.75-37.1h7.63l-9.7,37.1h-7.68ZM280.98,417l-9.65-37.1h7.63l10.12,37.1h-8.11ZM281.77,417l10.28-37.1h8.69l-10.87,37.1h-8.11Z"/>
    <path class="c" d="M321.15,417.64c-3.82,0-7.19-.82-10.12-2.46-2.93-1.64-5.23-3.9-6.89-6.78-1.66-2.88-2.49-6.17-2.49-9.88s.83-7.06,2.49-9.94c1.66-2.88,3.95-5.14,6.86-6.78,2.92-1.64,6.26-2.46,10.04-2.46s7.13.82,10.04,2.46c2.92,1.64,5.2,3.91,6.86,6.78,1.66,2.88,2.49,6.19,2.49,9.94s-.82,7-2.46,9.88c-1.64,2.88-3.91,5.14-6.81,6.78-2.9,1.64-6.24,2.46-10.02,2.46ZM321.15,409.79c2.08,0,3.92-.48,5.51-1.43,1.59-.95,2.83-2.29,3.71-4,.88-1.71,1.32-3.67,1.32-5.86s-.46-4.2-1.38-5.91-2.17-3.06-3.76-4.03c-1.59-.97-3.43-1.46-5.51-1.46s-3.92.49-5.51,1.46c-1.59.97-2.84,2.31-3.76,4.03s-1.38,3.68-1.38,5.91.46,4.14,1.38,5.86c.92,1.71,2.19,3.05,3.82,4,1.62.95,3.48,1.43,5.56,1.43Z"/>
    <path class="c" d="M344.58,417v-37.1h14.58c2.69,0,5.07.52,7.16,1.56,2.08,1.04,3.72,2.49,4.9,4.35,1.18,1.85,1.78,3.98,1.78,6.39s-.6,4.54-1.8,6.41-2.85,3.33-4.96,4.37c-2.1,1.04-4.51,1.56-7.24,1.56h-5.88v12.46h-8.53ZM353.11,396.7h5.78c.99,0,1.87-.19,2.65-.58.78-.39,1.39-.93,1.83-1.62.44-.69.66-1.46.66-2.31,0-1.31-.49-2.39-1.46-3.23-.97-.85-2.25-1.27-3.84-1.27h-5.62v9.01ZM364.72,417l-8.37-14.73,6.41-4.72,11.71,19.45h-9.75Z"/>
    <path class="c" d="M378.18,417v-37.1h8.48v37.1h-8.48ZM383.11,409.16l-.42-11.4,16.43-17.86h11.13l-27.14,29.26ZM400.23,417l-14.58-18.87,6.31-5.04,18.82,23.9h-10.55Z"/>
    <path class="c" d="M426.51,417.64c-1.8,0-3.52-.24-5.17-.71-1.64-.48-3.13-1.13-4.45-1.96-1.32-.83-2.41-1.77-3.26-2.81-.85-1.04-1.38-2.16-1.59-3.37l8.43-2.38c.39,1.02,1.07,1.92,2.04,2.68.97.76,2.2,1.16,3.68,1.19,1.45.04,2.66-.3,3.63-1.01.97-.71,1.46-1.62,1.46-2.76,0-.88-.34-1.66-1.03-2.33-.69-.67-1.67-1.18-2.94-1.54l-5.25-1.33c-1.84-.46-3.44-1.18-4.8-2.17-1.36-.99-2.42-2.2-3.18-3.63-.76-1.43-1.14-3.07-1.14-4.9,0-3.57,1.18-6.35,3.55-8.35s5.71-3,10.02-3c2.37,0,4.43.33,6.2.98,1.77.65,3.28,1.62,4.53,2.89,1.25,1.27,2.25,2.86,2.99,4.77l-8.37,2.49c-.28-.95-.89-1.82-1.83-2.6-.94-.78-2.15-1.17-3.63-1.17s-2.64.34-3.47,1.01c-.83.67-1.25,1.64-1.25,2.92,0,.88.33,1.62,1.01,2.2.67.58,1.59,1.02,2.76,1.3l5.25,1.33c3,.74,5.34,2.13,7.02,4.16,1.68,2.03,2.52,4.34,2.52,6.92,0,2.33-.54,4.33-1.62,5.99-1.08,1.66-2.64,2.94-4.69,3.84-2.05.9-4.52,1.35-7.42,1.35Z"/>
  </g>
  <g>
    <path class="c" d="M81.56,417.08v-37.15h8.53v37.15h-8.53ZM87.6,402.08v-7.84h22.47v7.84h-22.47ZM105.52,417.08v-37.1h8.53v37.1h-8.53Z"/>
    <path class="c" d="M137.69,417.72c-3.82,0-7.19-.82-10.12-2.46-2.93-1.64-5.23-3.9-6.89-6.78-1.66-2.88-2.49-6.17-2.49-9.88s.83-7.06,2.49-9.94c1.66-2.88,3.95-5.14,6.86-6.78,2.92-1.64,6.26-2.46,10.04-2.46s7.13.82,10.04,2.46c2.91,1.64,5.2,3.91,6.86,6.78,1.66,2.88,2.49,6.19,2.49,9.94s-.82,7-2.46,9.88-3.91,5.14-6.81,6.78c-2.9,1.64-6.24,2.46-10.02,2.46ZM137.69,409.87c2.08,0,3.92-.48,5.51-1.43s2.83-2.29,3.71-4c.88-1.71,1.33-3.67,1.33-5.86s-.46-4.2-1.38-5.91c-.92-1.71-2.17-3.06-3.76-4.03-1.59-.97-3.43-1.46-5.51-1.46s-3.92.49-5.51,1.46c-1.59.97-2.84,2.31-3.76,4.03-.92,1.71-1.38,3.68-1.38,5.91s.46,4.14,1.38,5.86c.92,1.71,2.19,3.05,3.82,4,1.62.95,3.48,1.43,5.57,1.43Z"/>
    <path class="c" d="M161.11,417.08v-37.1h9.38l9.86,14.63,9.91-14.63h9.38v37.1h-8.53v-23.85l-10.71,15.69-10.76-15.69v23.85h-8.53Z"/>
    <path class="c" d="M205.79,417.08v-37.1h24.17v7.84h-15.63v6.78h13.09v7.58h-13.09v7.05h15.9v7.84h-24.43Z"/>
  </g>
  <g>
    <path class="b" d="M81.51,291.89c0-3.74,1.87-5.61,5.61-5.61h6.63c3.74,0,5.61,1.87,5.61,5.61v23.56h26.52v-23.56c0-3.74,1.87-5.61,5.61-5.61h6.63c3.74,0,5.61,1.87,5.61,5.61v61.71c0,3.74-1.87,5.61-5.61,5.61h-6.63c-3.74,0-5.61-1.87-5.61-5.61v-22.95h-26.52v22.95c0,3.74-1.87,5.61-5.61,5.61h-6.63c-3.74,0-5.61-1.87-5.61-5.61v-61.71Z"/>
    <path class="b" d="M157.09,291.89c0-3.74,1.87-5.61,5.61-5.61h6.63c3.74,0,5.61,1.87,5.61,5.61v40.49c0,3.88,1.14,6.8,3.42,8.77,2.28,1.97,5.35,2.96,9.23,2.96s6.95-.99,9.23-2.96c2.28-1.97,3.42-4.9,3.42-8.77v-40.49c0-3.74,1.87-5.61,5.61-5.61h6.63c3.74,0,5.61,1.87,5.61,5.61v40.49c0,4.08-.73,7.84-2.19,11.27-1.46,3.43-3.52,6.39-6.17,8.87-2.65,2.48-5.85,4.42-9.59,5.81-3.74,1.39-7.89,2.09-12.44,2.09s-8.82-.7-12.6-2.09c-3.77-1.39-6.99-3.33-9.64-5.81-2.65-2.48-4.71-5.44-6.17-8.87-1.46-3.43-2.19-7.19-2.19-11.27v-40.49Z"/>
    <path class="b" d="M231.45,291.89c0-3.74,1.87-5.61,5.61-5.61h19.79c3.74,0,6.65.14,8.72.41,2.07.27,3.89.71,5.46,1.33,4.15,1.56,7.43,4.17,9.84,7.8,2.41,3.64,3.62,8.11,3.62,13.41,0,1.97-.22,3.93-.66,5.86-.44,1.94-1.12,3.81-2.04,5.61-.92,1.8-2.06,3.43-3.42,4.9-1.36,1.46-2.96,2.64-4.79,3.52v.2c.2.27.44.61.71,1.02.27.34.56.8.87,1.38.31.58.7,1.24,1.17,1.99l10.4,18.77c1.15,1.97,1.34,3.59.56,4.84-.78,1.26-2.26,1.89-4.44,1.89h-7.75c-2.92,0-5.13-1.33-6.63-3.98l-10.81-20.6h-8.37v18.97c0,3.74-1.87,5.61-5.61,5.61h-6.63c-3.74,0-5.61-1.87-5.61-5.61v-61.71ZM257.05,319.32c2.86,0,5.12-.76,6.78-2.29s2.5-3.76,2.5-6.68c0-1.84-.29-3.42-.87-4.74-.58-1.33-1.72-2.33-3.42-3.01-1.56-.68-3.81-1.02-6.73-1.02h-6.02v17.75h7.75Z"/>
    <path class="b" d="M292.24,322.28c0-5.24.92-10.11,2.75-14.64,1.84-4.52,4.44-8.47,7.8-11.83,3.37-3.37,7.39-6,12.09-7.91,4.69-1.9,9.86-2.86,15.5-2.86s10.81.95,15.5,2.86c4.69,1.9,8.72,4.54,12.09,7.91s5.97,7.31,7.8,11.83c1.84,4.52,2.75,9.4,2.75,14.64s-.92,10.37-2.75,14.99c-1.84,4.62-4.44,8.65-7.8,12.09-3.37,3.43-7.39,6.14-12.09,8.11-4.69,1.97-9.86,2.96-15.5,2.96s-10.81-.99-15.5-2.96c-4.69-1.97-8.72-4.67-12.09-8.11-3.37-3.43-5.97-7.46-7.8-12.09-1.84-4.62-2.75-9.62-2.75-14.99ZM310.7,322.28c0,3.13.49,6.02,1.48,8.67.98,2.65,2.35,4.95,4.08,6.88,1.73,1.94,3.81,3.47,6.22,4.59,2.41,1.12,5.05,1.68,7.91,1.68s5.49-.56,7.91-1.68c2.41-1.12,4.49-2.65,6.22-4.59,1.73-1.94,3.09-4.23,4.08-6.88.98-2.65,1.48-5.54,1.48-8.67s-.49-5.76-1.48-8.31c-.99-2.55-2.35-4.76-4.08-6.63-1.73-1.87-3.81-3.33-6.22-4.39-2.42-1.05-5.05-1.58-7.91-1.58s-5.49.53-7.91,1.58c-2.41,1.06-4.49,2.52-6.22,4.39-1.73,1.87-3.1,4.08-4.08,6.63-.99,2.55-1.48,5.32-1.48,8.31Z"/>
    <path class="b" d="M378.84,291.89c0-3.74,1.87-5.61,5.61-5.61h7.96c3.06,0,5.3,1.26,6.73,3.77l17.95,30.29c.75,1.22,1.46,2.55,2.14,3.98.68,1.43,1.33,2.79,1.94,4.08.68,1.5,1.36,2.96,2.04,4.39h.2c-.14-1.5-.27-2.99-.41-4.49-.14-1.29-.24-2.65-.31-4.08-.07-1.43-.1-2.72-.1-3.88v-28.46c0-3.74,1.87-5.61,5.61-5.61h6.63c3.74,0,5.61,1.87,5.61,5.61v61.71c0,3.74-1.87,5.61-5.61,5.61h-7.96c-2.99,0-5.2-1.26-6.63-3.77l-18.05-30.19c-.75-1.16-1.5-2.46-2.24-3.93-.75-1.46-1.39-2.84-1.94-4.13-.75-1.5-1.39-2.96-1.94-4.39h-.2c.13,1.5.27,2.99.41,4.49.13,1.29.24,2.65.31,4.08.07,1.43.1,2.72.1,3.88v28.36c0,3.74-1.87,5.61-5.61,5.61h-6.63c-3.74,0-5.61-1.87-5.61-5.61v-61.71Z"/>
  </g>
</svg>